<?xml version="1.0" encoding="utf-8"?>
<!-- Generator: Adobe Illustrator 27.7.0, SVG Export Plug-In . SVG Version: 6.00 Build 0)  -->
<svg version="1.1" id="Capa_1" xmlns="http://www.w3.org/2000/svg" xmlns:xlink="http://www.w3.org/1999/xlink" x="0px" y="0px"
	 viewBox="0 0 250 250" style="enable-background:new 0 0 250 250;" xml:space="preserve">
<style type="text/css">
	.st0{fill:#121273;}
	.st1{font-family:'Montserrat-Black';}
	.st2{font-size:31.4333px;}
	.st3{fill-rule:evenodd;clip-rule:evenodd;fill:url(#SVGID_1_);}
	.st4{fill-rule:evenodd;clip-rule:evenodd;fill:url(#SVGID_00000083077452481861946460000003800071444038493104_);}
	.st5{fill-rule:evenodd;clip-rule:evenodd;fill:url(#SVGID_00000059296566917468213840000003817516231785635460_);}
	.st6{fill-rule:evenodd;clip-rule:evenodd;fill:#121273;}
</style>
<g>
	<text transform="matrix(1 0 0 1 35.1654 224.0127)" class="st0 st1 st2">WatchNet</text>
	<g>
		<linearGradient id="SVGID_1_" gradientUnits="userSpaceOnUse" x1="196.3687" y1="117.5749" x2="53.6383" y2="117.5749">
			<stop  offset="0" style="stop-color:#045EE1"/>
			<stop  offset="1" style="stop-color:#0B1C5E"/>
		</linearGradient>
		<path class="st3" d="M76.64,139.1c-5.26,5.26-13.8,5.26-19.06,0c-5.26-5.26-5.26-13.8,0-19.06C75.52,102.11,99.64,92.11,125,92.11
			c25.37,0,49.49,10,67.42,27.94c5.26,5.26,5.26,13.8,0,19.06c-5.26,5.26-13.8,5.26-19.06,0c-12.86-12.86-30.18-20.02-48.37-20.02
			C106.81,119.08,89.5,126.24,76.64,139.1L76.64,139.1z"/>
		
			<linearGradient id="SVGID_00000003788608404871262870000008016921242080847796_" gradientUnits="userSpaceOnUse" x1="53.6853" y1="92.6519" x2="233.9845" y2="92.6519">
			<stop  offset="0" style="stop-color:#045EE1"/>
			<stop  offset="1" style="stop-color:#0B1C5E"/>
		</linearGradient>
		<path style="fill-rule:evenodd;clip-rule:evenodd;fill:url(#SVGID_00000003788608404871262870000008016921242080847796_);" d="
			M79.52,134.66c-2.81,6.81-10.7,10.12-17.52,7.32c-6.8-2.79-10.13-10.69-7.32-17.5c13.34-32.29,39.11-57.91,71.21-71.56
			c31.87-13.55,67.67-14.28,99.77-1.03c6.81,2.81,10.12,10.7,7.32,17.52c-2.79,6.81-10.7,10.12-17.5,7.31
			c-25.43-10.49-53.83-9.81-79.07,0.92C110.81,88.52,90.16,108.88,79.52,134.66L79.52,134.66z"/>
		
			<linearGradient id="SVGID_00000098916633800755037680000014240501418619697293_" gradientUnits="userSpaceOnUse" x1="234.0108" y1="47.6148" x2="15.9892" y2="47.6148">
			<stop  offset="0" style="stop-color:#045EE1"/>
			<stop  offset="1" style="stop-color:#0B1C5E"/>
		</linearGradient>
		<path style="fill-rule:evenodd;clip-rule:evenodd;fill:url(#SVGID_00000098916633800755037680000014240501418619697293_);" d="
			M37.79,74.82c-5.79,4.61-14.28,3.63-18.89-2.16c-4.61-5.8-3.63-14.28,2.16-18.89C50.63,30.24,87.21,17.5,125,17.5
			c37.78,0,74.37,12.74,103.95,36.27c5.79,4.61,6.77,13.1,2.16,18.89c-4.61,5.79-13.1,6.77-18.89,2.16
			C187.4,55.09,156.68,44.47,125,44.47C93.31,44.47,62.6,55.09,37.79,74.82L37.79,74.82z"/>
		<path class="st6" d="M125,145.16c10.85,0,19.65,8.8,19.65,19.65c0,10.85-8.8,19.64-19.65,19.64c-10.85,0-19.65-8.8-19.65-19.64
			C105.35,153.95,114.15,145.16,125,145.16L125,145.16z"/>
	</g>
</g>
</svg>
